<svg xmlns="http://www.w3.org/2000/svg" viewBox="0 0 30 30" width="264px" height="264px">
    <path xmlns="http://www.w3.org/2000/svg"
        d="M21.2000122,14.8299561 l-4.6500244,3.8400269c-0.3129921,0.2608795-0.7562418,0.2935772-1.0599976,0.1300049 c-0.3500366-0.1600342-0.5800171-0.5200195-0.5800171-0.9000244v-1.3499756 c-1.9699707,0.3599854-3.6099854,1.7600098-4.2399902,3.710022c-0.0999756,0.3099976-0.3900146,0.5199585-0.710022,0.5199585 c-0.3299561,0-0.6099854-0.2099609-0.7199707-0.5100098c-1.3472085-4.285656,1.4779453-8.5257883,5.6699829-9.1300049v-0.9099731 c0-0.3900146,0.2299805-0.7399902,0.5800171-0.9099731C15.8399658,9.1599731,16.25,9.2099609,16.5499878,9.4599609 l4.6500244,3.8300171c0.2299805,0.1799927,0.3699951,0.4700317,0.3699951,0.7700195S21.4400024,14.6399536,21.2000122,14.8299561z"
        fill="#fff" stroke="#000" />
</svg>